<?xml version="1.0" standalone="no"?>
<!DOCTYPE svg PUBLIC "-//W3C//DTD SVG 20010904//EN"
 "http://www.w3.org/TR/2001/REC-SVG-20010904/DTD/svg10.dtd">
<svg version="1.0" xmlns="http://www.w3.org/2000/svg"
 width="563.000000pt" height="563.000000pt" viewBox="0 0 563.000000 563.000000"
 preserveAspectRatio="xMidYMid meet">
<metadata>
Created by potrace 1.14, written by Peter Selinger 2001-2017
</metadata>
<g transform="translate(0.000000,563.000000) scale(0.100000,-0.100000)"
fill="#000000" stroke="none">
<path d="M5223 5604 c-28 -31 -28 -35 -3 -85 15 -29 18 -44 10 -58 -7 -14 -6
-22 4 -30 14 -12 20 -99 8 -117 -12 -18 -50 -23 -63 -8 -6 8 -26 14 -43 14
-23 0 -39 8 -56 30 -14 16 -33 29 -43 30 -10 0 -38 14 -61 31 -31 22 -57 31
-97 35 -57 4 -87 9 -130 20 -23 5 -27 2 -31 -20 -4 -18 0 -30 11 -36 9 -5 12
-10 8 -10 -4 0 4 -10 19 -23 24 -21 25 -25 13 -46 -12 -20 -12 -24 4 -36 11
-7 25 -11 33 -8 8 3 17 -3 21 -13 10 -28 41 -54 63 -54 25 0 26 17 3 23 -10 3
-2 5 18 6 20 0 50 -4 67 -10 27 -9 31 -15 26 -36 -5 -19 -2 -25 15 -30 15 -4
21 -13 21 -33 0 -23 6 -29 33 -35 17 -5 40 -8 50 -7 10 1 35 -14 55 -33 20
-19 43 -35 50 -35 15 0 15 -3 0 -34 -9 -21 -8 -29 5 -44 10 -10 17 -28 17 -39
0 -11 3 -23 7 -26 3 -4 6 -30 6 -59 -1 -42 4 -58 27 -87 15 -20 31 -51 35 -69
4 -18 13 -36 21 -39 8 -3 14 -11 14 -19 0 -8 7 -14 15 -14 8 0 15 -4 15 -9 0
-6 12 -16 28 -23 16 -8 27 -22 28 -35 1 -13 -3 -20 -7 -17 -5 3 -9 -3 -9 -13
0 -10 -6 -27 -13 -38 -25 -39 -35 -91 -37 -187 l-1 -97 29 -15 c16 -8 32 -13
35 -9 8 8 25 -37 42 -112 28 -122 40 -162 52 -176 6 -8 16 -27 22 -42 10 -25
41 -39 41 -17 0 6 7 10 15 10 13 0 15 107 15 905 l0 905 -192 0 -193 0 -22
-26z"/>
<path d="M3790 5583 c-43 -30 -102 -40 -150 -26 -35 11 -50 11 -67 2 -12 -6
-33 -9 -47 -5 -21 5 -27 1 -42 -29 -9 -19 -22 -35 -29 -35 -7 0 -29 -16 -49
-35 -21 -19 -48 -38 -61 -41 -17 -4 -25 -15 -30 -42 -4 -21 -18 -49 -32 -64
-21 -22 -28 -41 -32 -94 l-6 -67 -49 -15 c-32 -10 -52 -24 -59 -39 -7 -16 -13
-20 -18 -12 -5 8 -11 5 -18 -10 -9 -16 -9 -21 0 -19 6 2 14 -3 17 -11 3 -10
-1 -12 -17 -8 -16 4 -29 -2 -44 -19 -11 -13 -26 -24 -32 -24 -19 0 -59 -49
-60 -73 -5 -92 -2 -86 -45 -93 -32 -5 -40 -11 -40 -28 0 -11 -10 -41 -21 -66
-12 -25 -27 -69 -35 -97 -7 -29 -27 -78 -44 -109 -24 -45 -31 -75 -37 -141 -7
-99 6 -138 43 -129 32 9 53 -2 71 -38 l17 -31 6 25 6 25 8 -28 c6 -25 10 -28
33 -22 27 6 113 71 113 85 0 11 45 54 90 85 33 23 43 25 55 15 8 -7 13 -16 10
-20 -3 -5 4 -6 15 -3 25 7 50 -13 50 -39 0 -11 -27 -49 -60 -85 -62 -68 -73
-99 -44 -127 20 -21 33 -20 69 4 27 18 31 18 47 3 22 -19 42 -6 32 21 -4 11
-15 16 -32 14 -34 -4 -37 13 -7 35 36 26 75 6 75 -39 0 -34 23 -52 45 -34 8 6
15 6 23 -2 21 -21 59 6 66 46 4 20 4 41 1 46 -3 6 1 10 10 10 9 0 14 4 10 9
-7 12 46 90 62 91 6 0 27 16 46 35 38 38 74 45 84 18 34 -99 60 -152 89 -179
19 -18 34 -37 34 -42 0 -20 41 -34 124 -43 117 -14 115 -14 186 1 82 16 120
31 120 47 0 15 26 17 35 3 3 -5 24 -10 46 -10 31 0 39 -4 39 -18 0 -10 -5 -23
-11 -29 -17 -17 6 -52 31 -46 11 3 20 9 20 14 0 4 8 7 18 7 9 0 87 3 172 6
122 6 159 11 173 24 10 9 41 19 70 23 60 8 177 48 177 60 0 5 16 9 36 9 30 0
33 2 21 14 -7 8 -24 12 -38 10 -24 -4 -60 19 -120 80 -29 28 -39 66 -18 66 8
0 8 5 -1 15 -10 12 -9 15 8 15 11 0 25 -7 32 -15 8 -10 30 -15 61 -15 39 0 49
-3 49 -17 0 -14 2 -14 20 2 16 14 23 16 32 7 18 -18 28 -15 28 8 0 12 -5 17
-13 14 -7 -2 -23 6 -35 19 -19 20 -21 28 -11 55 7 22 7 36 -1 51 -6 12 -8 21
-5 21 4 0 -1 7 -9 16 -23 22 -20 60 6 78 l23 16 -38 31 c-20 17 -37 37 -37 45
0 16 -9 18 -30 4 -13 -9 -13 -11 0 -20 13 -8 13 -10 -1 -10 -9 0 -19 7 -23 15
-3 8 -12 12 -20 9 -18 -7 -46 18 -46 40 0 9 -4 16 -10 16 -5 0 -10 8 -10 18 0
21 -30 52 -49 52 -9 0 -11 -8 -7 -26 6 -22 5 -24 -9 -12 -33 27 -75 73 -75 82
0 14 -33 35 -56 36 -12 0 -32 11 -45 25 -16 16 -35 25 -57 25 -34 0 -72 15
-84 33 -4 7 -11 7 -21 -2 -11 -9 -16 -9 -19 0 -2 6 -38 14 -83 18 -71 5 -80 8
-80 26 0 11 -8 21 -18 23 -9 2 -17 -2 -17 -8 0 -6 -5 -8 -10 -5 -6 4 -8 11 -5
16 4 5 -1 16 -10 25 -10 10 -13 24 -9 36 6 19 3 20 -45 16 -40 -4 -54 -2 -61
11 -9 14 -11 14 -20 1 -8 -13 -10 -13 -10 3 0 9 7 17 15 17 8 0 15 6 15 14 0
8 13 17 30 20 17 3 43 9 59 12 16 3 40 14 53 26 19 17 33 19 85 15 41 -3 78 0
104 10 23 7 65 13 93 12 33 -1 74 6 115 21 l64 24 -24 18 c-13 10 -28 22 -34
26 -5 4 -18 11 -27 15 -11 4 -15 12 -12 21 4 10 -3 20 -19 27 -22 10 -46 50
-28 47 3 0 35 1 71 2 63 2 64 2 35 15 -18 8 -57 12 -100 10 -82 -4 -155 11
-172 36 -18 25 -91 32 -203 18 l-100 -12 -41 28 c-37 27 -48 29 -140 30 -71 2
-104 -2 -119 -12z m500 -97 c0 -11 -19 -15 -25 -6 -3 5 1 10 9 10 9 0 16 -2
16 -4z m-92 -418 c4 -32 -4 -35 -30 -11 -25 23 -23 45 5 41 16 -2 23 -11 25
-30z m42 -250 c36 -8 79 -22 95 -30 17 -8 44 -18 60 -22 17 -4 37 -13 45 -21
8 -7 32 -18 52 -24 44 -14 52 -24 43 -51 -4 -13 -15 -20 -31 -20 -16 0 -23 4
-18 11 4 8 0 8 -15 0 -33 -18 -25 -31 22 -31 23 0 49 -5 57 -10 12 -8 9 -10
-12 -10 -14 0 -28 -5 -30 -12 -3 -8 -21 -12 -46 -11 -23 1 -42 -2 -42 -8 0 -5
3 -9 8 -9 4 0 12 -11 19 -25 10 -22 9 -25 -8 -25 -10 0 -19 7 -19 15 0 8 -7
15 -15 15 -9 0 -12 -6 -8 -16 5 -14 1 -16 -23 -11 -56 10 -84 17 -111 29 -16
6 -36 10 -46 9 -10 -1 -26 8 -37 21 -11 13 -19 18 -20 11 0 -20 -40 -26 -59
-9 -14 13 -24 14 -55 5 -21 -6 -55 -8 -76 -4 -25 4 -48 1 -67 -8 -15 -8 -61
-17 -100 -19 -40 -3 -79 -11 -87 -18 -16 -12 -40 -5 -31 10 3 5 -2 16 -11 25
-15 15 -18 15 -38 -4 -27 -25 -44 -27 -42 -4 0 10 -7 19 -16 21 -12 2 -18 -3
-18 -15 0 -24 -19 -43 -42 -43 -27 0 -25 50 3 57 16 4 20 12 16 30 -3 19 2 26
29 39 19 9 34 22 34 28 0 19 57 66 93 78 18 6 54 21 81 34 28 13 59 24 70 24
12 0 28 5 36 10 22 15 282 6 360 -12z m-615 -288 c3 -5 -1 -10 -9 -10 -9 0
-16 5 -16 10 0 6 4 10 9 10 6 0 13 -4 16 -10z m3 -32 c-7 -19 -38 -22 -38 -4
0 10 9 16 21 16 12 0 19 -5 17 -12z m-182 -310 c5 -7 3 -8 -6 -3 -9 5 -11 2
-6 -11 3 -11 -2 -28 -10 -39 -11 -15 -18 -17 -32 -9 -9 6 -18 21 -20 32 -3 16
4 23 30 31 18 5 34 10 35 10 1 1 5 -4 9 -11z"/>
<path d="M3710 4600 c0 -5 5 -10 11 -10 5 0 7 5 4 10 -3 6 -8 10 -11 10 -2 0
-4 -4 -4 -10z"/>
<path d="M4345 4602 c-9 -9 17 -32 36 -32 28 0 23 27 -6 32 -13 3 -27 3 -30 0z"/>
<path d="M4577 5560 c-16 -19 -16 -20 13 -20 23 0 30 4 30 20 0 11 -6 20 -13
20 -7 0 -20 -9 -30 -20z"/>
<path d="M3135 5306 c-13 -9 -19 -29 -21 -67 -2 -30 0 -48 5 -41 4 7 15 10 24
6 11 -4 19 0 23 10 3 9 14 16 24 16 21 0 17 29 -8 68 -17 26 -22 27 -47 8z"/>
<path d="M558 5235 c-4 -4 -53 -11 -110 -15 -114 -10 -199 -28 -211 -47 -4 -7
-23 -15 -42 -19 -19 -3 -35 -10 -35 -15 0 -5 -7 -9 -15 -9 -8 0 -15 -9 -15
-19 0 -21 -71 -61 -108 -61 -22 0 -22 -3 -22 -146 l0 -146 29 5 c22 5 36 0 57
-18 35 -30 26 -40 -37 -38 -48 1 -49 0 -49 -28 0 -25 4 -29 28 -29 15 0 37 7
49 15 12 9 33 14 46 11 23 -4 24 -2 20 37 l-5 42 45 13 c25 8 51 11 56 7 6 -3
27 -2 46 4 28 7 35 7 35 -5 0 -8 10 -14 23 -15 21 -1 21 -1 -3 -9 -14 -4 -19
-8 -12 -9 6 -1 12 -5 12 -10 0 -10 -71 -23 -122 -21 -21 0 -38 -2 -38 -4 0
-12 35 -46 47 -46 7 0 13 -9 13 -20 0 -11 -5 -20 -11 -20 -6 0 -28 -18 -48
-39 -20 -22 -50 -42 -67 -45 -25 -6 -34 -15 -44 -46 -14 -41 -27 -50 -36 -26
-3 8 -12 12 -20 9 -12 -4 -14 -71 -12 -442 l3 -436 37 3 c31 2 38 0 38 -16 0
-10 5 -23 12 -30 9 -9 9 -12 -1 -12 -11 0 -11 -3 -1 -15 9 -10 9 -15 1 -15 -6
0 -11 -17 -11 -42 1 -38 5 -46 37 -66 19 -12 66 -31 103 -41 102 -29 150 -58
150 -92 0 -26 27 -31 169 -31 129 0 229 14 266 36 11 7 49 18 85 25 35 7 100
30 145 51 44 21 119 55 167 76 48 20 110 54 139 75 29 22 62 39 78 39 18 0 22
3 12 9 -17 11 -6 32 13 25 9 -4 16 5 21 25 5 22 12 31 27 31 19 0 19 1 -5 20
-29 23 -95 27 -146 9 -23 -8 -35 -8 -46 1 -8 6 -23 9 -34 5 -15 -4 -28 2 -47
20 -21 21 -29 24 -35 13 -7 -10 -9 -9 -9 5 0 11 -8 17 -25 17 -14 0 -25 -3
-25 -7 0 -5 -24 -9 -52 -9 -29 -1 -84 -9 -123 -18 -59 -15 -80 -16 -129 -6
-57 11 -60 11 -83 -14 -29 -32 -85 -36 -105 -8 -7 11 -23 24 -35 31 -27 14
-29 33 -7 52 15 12 14 14 -7 19 -27 7 -46 48 -34 76 5 12 9 15 12 7 8 -22 62
-74 80 -77 10 -2 37 -12 61 -21 57 -23 170 -16 227 14 21 12 49 21 62 21 31 0
67 18 78 39 34 63 69 142 79 181 11 41 15 45 46 47 25 1 41 -6 62 -28 16 -16
35 -29 43 -29 7 0 18 -7 25 -15 10 -12 8 -16 -10 -23 -21 -8 -21 -9 -5 -25 21
-22 30 -21 52 2 36 37 62 44 91 24 27 -18 27 -18 4 -21 -12 -2 -32 -17 -44
-33 -12 -16 -28 -29 -35 -29 -7 0 -13 -5 -13 -10 0 -20 29 -22 59 -4 24 14 35
16 55 6 22 -10 27 -8 40 10 10 14 21 19 37 15 28 -7 79 18 81 41 3 41 -5 57
-57 107 -60 59 -65 70 -35 78 26 7 26 25 -1 29 -31 4 -47 32 -28 49 8 8 20 15
28 17 19 4 101 -37 139 -70 18 -15 40 -28 49 -28 25 0 87 -60 99 -97 6 -18 10
-52 9 -75 -1 -24 0 -29 2 -13 l5 30 15 -35 c11 -23 15 -58 13 -105 -2 -57 -6
-75 -26 -98 -26 -31 -29 -43 -14 -52 12 -8 10 -56 -4 -74 -8 -10 -8 -15 2 -18
6 -3 12 -13 12 -24 0 -12 -5 -16 -14 -13 -20 8 -25 -5 -27 -79 -1 -37 -5 -67
-10 -67 -4 0 -18 -14 -30 -31 -18 -26 -19 -33 -8 -40 8 -5 10 -9 4 -9 -16 0
-15 -52 1 -67 8 -8 14 -33 15 -56 0 -39 1 -40 11 -17 21 53 38 133 38 185 0
30 4 55 10 55 5 0 9 8 8 18 -1 9 0 27 0 40 2 20 4 21 22 10 12 -8 20 -24 20
-40 0 -24 4 -28 30 -28 17 0 44 10 60 22 33 24 38 38 16 38 -19 0 -27 186 -9
202 13 10 3 36 -26 67 -20 22 -9 219 14 255 12 18 15 36 11 56 -3 17 1 49 8
71 10 28 11 50 5 73 -5 18 -11 52 -13 77 -8 73 -27 151 -50 194 -22 42 -25 54
-29 97 -1 15 -8 33 -15 40 -6 6 -12 16 -12 21 0 15 -62 86 -74 84 -6 -1 -11 8
-11 20 0 13 -6 28 -13 35 -9 9 -12 9 -12 1 0 -7 -15 1 -32 18 -18 16 -38 27
-44 25 -15 -6 -56 23 -49 34 9 14 -35 52 -52 46 -30 -12 -43 14 -43 85 0 70
-14 92 -27 42 -7 -30 -9 -40 -11 -90 -2 -26 -6 -33 -22 -33 -12 0 -24 9 -29
23 -5 12 -11 21 -15 19 -3 -1 -17 5 -31 14 -30 19 -49 75 -42 120 5 27 1 40
-18 62 -25 29 -23 30 -40 -23 -6 -21 -52 -19 -64 4 -13 24 -48 33 -55 15 -3
-8 -11 -14 -18 -14 -14 0 -48 34 -48 49 0 13 -86 81 -103 81 -9 0 -29 -8 -45
-17 -28 -16 -35 -16 -79 -3 -26 8 -74 14 -105 13 -32 -1 -66 -2 -75 -2 -10 0
-47 2 -83 5 -36 3 -68 2 -72 -1z m-251 -651 c-3 -3 -12 -4 -19 -1 -8 3 -5 6 6
6 11 1 17 -2 13 -5z m647 -67 l29 -16 -24 -5 c-21 -4 -139 -18 -179 -21 -34
-2 -96 -18 -115 -29 -11 -7 -45 -18 -75 -25 -30 -7 -78 -26 -106 -42 -28 -16
-58 -29 -66 -29 -17 0 -135 -86 -190 -138 -38 -36 -54 -38 -44 -5 9 30 156
166 206 191 25 12 52 27 60 32 29 17 83 40 96 40 7 0 14 3 16 8 3 7 159 48
208 55 57 7 157 -1 184 -16z m111 -104 c46 -17 49 -20 40 -41 -7 -17 -18 -22
-45 -22 -41 0 -67 -16 -72 -44 -4 -27 -116 -68 -198 -74 -36 -2 -69 -7 -75
-12 -5 -4 -26 -11 -45 -15 -19 -4 -45 -14 -57 -22 -13 -9 -33 -13 -45 -10 -12
4 -26 0 -32 -7 -6 -8 -21 -17 -33 -20 -17 -5 -21 -3 -19 11 2 10 1 13 -1 6 -5
-14 -32 -25 -44 -17 -6 3 -7 15 -3 26 4 14 -1 24 -15 34 -29 21 -26 42 7 46
18 2 27 8 26 20 -1 10 10 21 26 27 16 5 31 19 35 30 3 12 13 21 20 21 8 0 37
13 64 29 28 17 66 33 86 37 19 3 38 11 42 17 10 17 279 1 338 -20z m-975 -43
c0 -5 -2 -10 -4 -10 -3 0 -8 5 -11 10 -3 6 -1 10 4 10 6 0 11 -4 11 -10z
m1016 -95 c19 -15 19 -15 0 -30 -25 -19 -66 -19 -92 -1 -18 14 -18 15 6 24 14
5 32 12 40 15 23 8 25 8 46 -8z m-736 -89 c0 -3 -4 -8 -10 -11 -5 -3 -10 -1
-10 4 0 6 5 11 10 11 6 0 10 -2 10 -4z m-194 -35 c-8 -13 -36 -15 -36 -3 0 4
5 13 12 20 14 14 34 0 24 -17z m690 -16 c8 -31 3 -38 -20 -29 -24 9 -20 54 5
54 5 0 11 -11 15 -25z m654 -5 c0 -5 -7 -10 -15 -10 -8 0 -15 5 -15 10 0 6 7
10 15 10 8 0 15 -4 15 -10z m400 -182 c0 -44 -17 -43 -20 2 -3 34 -2 40 10 40
6 0 10 -19 10 -42z m-1360 -227 c0 -13 -27 -21 -45 -15 -25 10 -17 24 15 24
17 0 30 -4 30 -9z m560 -81 c0 -30 -13 -40 -25 -20 -8 13 4 50 16 50 5 0 9
-13 9 -30z m57 -22 c-3 -7 -5 -2 -5 12 0 14 2 19 5 13 2 -7 2 -19 0 -25z m73
23 c0 -11 -39 -25 -47 -18 -3 3 -2 10 2 16 8 13 45 15 45 2z m-491 -56 c19
-33 35 -44 43 -27 2 4 28 4 58 1 30 -3 47 -6 38 -7 -10 -1 -18 -8 -18 -16 0
-9 -17 -16 -51 -21 -29 -4 -59 -15 -70 -26 -10 -10 -23 -19 -29 -19 -5 0 -10
-3 -10 -7 0 -11 -50 -33 -74 -33 -26 0 -98 25 -91 31 2 3 -12 11 -32 18 -27
10 -38 11 -41 2 -4 -12 -92 -16 -92 -3 0 4 -14 16 -31 26 -28 17 -30 21 -24
55 9 47 10 48 44 28 37 -22 47 -21 79 4 l26 20 16 -22 c14 -18 20 -20 38 -10
12 7 22 9 22 7 0 -3 18 1 39 9 37 13 41 12 72 -11 42 -31 49 -30 49 6 0 40 13
38 39 -5z m224 -33 c-12 -2 -24 -11 -26 -20 -3 -10 -5 -7 -6 9 -1 24 2 26 27
20 24 -5 25 -6 5 -9z m-208 -119 c-11 -3 -24 -9 -29 -14 -15 -14 -26 -11 -26
6 0 11 10 15 38 14 21 -1 28 -3 17 -6z"/>
<path d="M481 4234 c0 -11 3 -14 6 -6 3 7 2 16 -1 19 -3 4 -6 -2 -5 -13z"/>
<path d="M3025 5161 c-3 -5 -1 -12 5 -16 5 -3 10 1 10 9 0 18 -6 21 -15 7z"/>
<path d="M3147 4324 c-14 -14 -7 -24 17 -24 14 0 28 5 31 10 3 6 2 10 -4 10
-5 0 -16 2 -23 5 -8 3 -17 2 -21 -1z"/>
<path d="M4237 4043 c-4 -3 -7 -20 -6 -37 0 -28 1 -29 9 -10 5 12 13 25 19 29
6 3 9 11 6 16 -7 11 -19 12 -28 2z"/>
<path d="M3470 4024 c0 -8 5 -12 10 -9 6 3 10 10 10 16 0 5 -4 9 -10 9 -5 0
-10 -7 -10 -16z"/>
<path d="M4001 3998 c-36 -16 -40 -21 -31 -38 13 -25 29 -25 74 -2 71 35 30
74 -43 40z"/>
<path d="M3703 3997 c-30 -13 -29 -19 4 -34 31 -15 31 -15 24 18 -5 23 -9 25
-28 16z"/>
<path d="M3879 4000 c-6 -56 -3 -65 21 -65 29 0 52 51 29 66 -19 12 -49 11
-50 -1z"/>
<path d="M3600 3976 c0 -16 6 -26 15 -26 8 0 15 5 15 10 0 6 7 10 15 10 8 0
15 5 15 10 0 6 -6 10 -14 10 -8 0 -21 3 -30 6 -12 5 -16 0 -16 -20z"/>
<path d="M3789 3995 c-1 -3 -1 -17 -2 -32 -1 -41 27 -36 30 5 2 23 -1 32 -12
32 -8 0 -15 -2 -16 -5z"/>
<path d="M3360 3900 c0 -5 -11 -10 -24 -10 -63 0 -74 -32 -23 -67 18 -13 37
-23 41 -23 4 0 22 -6 39 -14 110 -47 319 -114 427 -136 186 -39 442 -47 565
-20 22 5 94 19 160 31 l120 22 -35 15 c-19 8 -48 15 -65 17 -16 1 -42 8 -57
14 -16 6 -28 8 -28 5 0 -4 -6 -1 -13 5 -8 6 -47 10 -88 10 -322 -4 -418 -1
-434 15 -16 15 -89 31 -103 22 -5 -3 -20 3 -32 14 -13 11 -29 20 -37 20 -7 0
-13 6 -13 14 0 15 -63 31 -80 21 -14 -9 -80 17 -80 30 0 8 -14 10 -43 5 -24
-3 -52 -3 -63 1 -10 3 -33 4 -50 2 -18 -3 -35 0 -38 6 -9 14 -46 15 -46 1z"/>
<path d="M1787 3824 c-4 -4 -7 -16 -7 -27 0 -15 5 -18 23 -13 12 3 25 6 30 6
4 0 7 10 7 23 -1 21 -1 21 -14 4 -13 -17 -15 -17 -23 -2 -5 8 -12 12 -16 9z"/>
<path d="M1692 3730 c7 -11 15 -20 18 -20 3 0 6 9 7 20 1 14 -4 20 -18 20 -17
0 -18 -3 -7 -20z"/>
<path d="M1580 3710 c0 -5 17 -10 38 -9 33 1 34 2 12 9 -36 11 -50 11 -50 0z"/>
<path d="M1750 3703 c0 -15 2 -16 10 -3 8 13 10 12 10 -2 0 -10 7 -18 16 -18
24 0 12 35 -14 38 -16 3 -22 -2 -22 -15z"/>
<path d="M1919 3393 c-1 -5 0 -66 1 -138 1 -127 1 -130 -22 -140 -18 -8 -25
-21 -32 -67 -5 -37 -13 -58 -21 -58 -8 0 -17 -9 -20 -20 -7 -21 -25 -28 -25
-10 0 6 -5 10 -11 10 -5 0 -7 -5 -4 -10 4 -6 2 -17 -4 -24 -16 -19 -23 -69
-21 -144 1 -44 -3 -67 -14 -77 -21 -22 -10 -42 31 -56 31 -10 37 -9 59 12 13
12 24 30 24 39 0 8 7 25 14 36 8 12 17 43 20 70 3 27 7 60 10 74 2 14 5 50 6
80 2 45 4 50 9 25 7 -29 8 -29 22 20 11 36 13 61 6 90 -12 55 -5 177 11 183
22 7 -5 112 -28 112 -6 0 -10 -3 -11 -7z"/>
<path d="M2972 2975 c-12 -15 -30 -25 -46 -25 -18 0 -26 -5 -26 -18 0 -10 -5
-23 -11 -29 -8 -8 -6 -18 6 -37 10 -14 14 -26 10 -26 -4 0 -2 -6 4 -14 7 -8
11 -20 10 -28 -4 -29 2 -38 24 -37 12 0 39 -2 60 -6 30 -6 37 -5 37 9 0 9 7
16 15 16 20 0 47 44 39 64 -4 10 -17 22 -30 27 -20 7 -24 15 -24 52 0 30 -6
49 -18 60 -24 22 -27 22 -50 -8z"/>
<path d="M1920 2944 c0 -8 5 -12 10 -9 6 4 8 11 5 16 -9 14 -15 11 -15 -7z"/>
<path d="M5608 2903 c7 -3 16 -2 19 1 4 3 -2 6 -13 5 -11 0 -14 -3 -6 -6z"/>
<path d="M5600 2751 c0 -11 -6 -22 -12 -24 -10 -4 -10 -8 1 -15 11 -8 9 -14
-8 -31 -14 -14 -21 -34 -21 -60 0 -22 -4 -43 -10 -46 -5 -3 -10 -19 -10 -36 0
-22 -5 -29 -20 -29 -16 0 -19 -5 -15 -22 4 -17 -3 -33 -27 -58 -26 -29 -33
-32 -36 -17 -4 20 -11 21 -35 3 -18 -14 -20 -56 -2 -68 5 -4 -2 -11 -17 -17
-25 -9 -34 -37 -43 -126 -1 -5 -5 -30 -10 -55 -5 -25 -8 -50 -7 -57 2 -6 -2
-14 -8 -18 -5 -3 -10 -32 -10 -63 -1 -31 -7 -68 -15 -82 -8 -14 -14 -37 -15
-52 0 -16 -4 -28 -10 -28 -5 0 -10 -20 -10 -45 0 -39 -18 -96 -51 -157 -5 -10
-9 -31 -9 -48 0 -20 -5 -30 -15 -30 -12 0 -15 -9 -12 -35 3 -23 -1 -38 -10
-43 -7 -5 -18 -34 -23 -65 -5 -32 -12 -63 -16 -69 -4 -7 -8 -37 -9 -67 -1 -31
0 -49 2 -40 3 11 11 15 23 12 14 -4 22 2 31 23 24 59 33 74 45 74 16 0 25 27
18 55 -3 12 -1 26 5 29 6 4 15 25 21 47 6 22 15 37 20 34 8 -5 22 10 27 30 10
50 36 131 45 142 6 7 22 13 36 13 23 0 24 3 19 40 -3 22 -2 40 1 40 13 0 32
54 32 88 0 29 2 33 15 22 12 -10 15 -7 21 14 3 13 3 30 -1 35 -9 16 15 53 30
47 8 -3 15 0 17 6 2 6 19 1 40 -12 l36 -21 -24 -26 c-13 -14 -24 -32 -24 -40
0 -7 -7 -16 -16 -20 -8 -3 -13 -12 -10 -19 7 -19 -4 -74 -15 -74 -5 0 -9 9 -9
20 0 15 -7 20 -29 20 -23 0 -30 -5 -34 -27 -4 -20 0 -32 13 -43 27 -23 23 -67
-7 -75 -18 -4 -22 -9 -15 -18 21 -27 22 -64 2 -87 -17 -20 -18 -25 -6 -39 26
-30 35 -80 39 -218 3 -94 17 -135 37 -103 5 8 11 12 13 10 9 -10 15 -130 6
-131 -5 -1 -13 -2 -17 -3 -14 -2 -36 -30 -65 -84 -31 -57 -29 -87 5 -97 14 -5
17 -10 9 -18 -6 -6 -11 -30 -11 -53 0 -24 -4 -46 -10 -49 -5 -3 -10 -14 -10
-24 0 -10 -10 -31 -22 -47 -13 -16 -24 -45 -25 -68 -2 -23 -12 -54 -24 -70
-15 -20 -19 -36 -15 -58 5 -26 2 -31 -24 -41 -21 -8 -30 -18 -30 -34 0 -13 -4
-23 -8 -23 -12 0 -42 -56 -42 -78 0 -11 -7 -22 -15 -26 -8 -3 -15 -15 -15 -26
0 -13 -7 -20 -19 -20 -11 0 -22 -9 -26 -19 -4 -14 -13 -18 -30 -15 -14 2 -25
0 -25 -6 0 -5 5 -10 10 -10 6 0 10 -4 10 -10 0 -5 -9 -10 -19 -10 -11 0 -23
-5 -27 -11 -3 -6 -16 -8 -29 -5 -17 4 -27 -1 -39 -19 -9 -14 -23 -25 -31 -25
-10 0 -15 -11 -15 -35 0 -29 -5 -37 -27 -46 -26 -10 -27 -12 -8 -19 19 -8 19
-9 -2 -9 -16 -1 -23 -7 -23 -21 0 -20 7 -20 365 -20 l365 0 0 1385 c0 1224 -2
1385 -15 1385 -8 0 -15 -9 -15 -19z m-113 -407 c-3 -3 -12 -4 -19 -1 -8 3 -5
6 6 6 11 1 17 -2 13 -5z m47 -681 c-16 -26 -29 -15 -30 25 -1 52 6 59 24 22
11 -22 12 -37 6 -47z m-14 -334 c0 -11 -4 -17 -10 -14 -5 3 -10 13 -10 21 0 8
5 14 10 14 6 0 10 -9 10 -21z m-280 -1029 c0 -5 -4 -10 -10 -10 -5 0 -10 5
-10 10 0 6 5 10 10 10 6 0 10 -4 10 -10z"/>
<path d="M1669 2657 c-9 -12 -20 -37 -23 -55 -7 -29 -5 -32 16 -32 14 0 35 11
48 25 13 14 29 25 37 25 7 0 13 9 13 20 0 13 -5 17 -14 14 -8 -3 -25 1 -38 10
-21 13 -24 13 -39 -7z"/>
<path d="M3280 2625 c0 -8 5 -15 10 -15 6 0 10 7 10 15 0 8 -4 15 -10 15 -5 0
-10 -7 -10 -15z"/>
<path d="M1772 2438 c-7 -7 -12 -35 -12 -64 0 -36 -5 -56 -17 -65 -9 -8 -22
-29 -30 -46 -11 -27 -19 -33 -42 -33 -16 0 -36 -7 -45 -15 -8 -8 -22 -15 -30
-15 -13 0 -16 -12 -16 -57 1 -156 42 -293 92 -307 13 -3 36 -24 52 -46 16 -21
34 -36 39 -33 6 3 7 2 4 -4 -6 -10 21 -38 67 -68 14 -10 26 -22 26 -27 0 -5
15 -24 33 -41 50 -50 107 -118 107 -128 0 -6 4 -7 10 -4 5 3 21 -6 34 -20 28
-30 91 -65 118 -65 10 0 18 -4 18 -10 0 -18 44 -32 149 -47 186 -25 267 -10
346 62 12 11 50 45 86 75 35 30 77 67 92 83 16 15 33 27 38 27 5 0 9 4 9 9 0
6 14 18 30 28 17 9 30 23 30 30 0 7 3 13 8 13 4 0 18 18 31 40 14 22 33 42 43
46 10 3 18 9 18 14 0 5 9 11 19 15 11 3 25 21 31 40 11 34 61 85 83 85 7 1 30
19 52 41 22 22 52 47 66 54 50 27 79 207 49 301 -7 21 -14 45 -16 52 -6 21
-20 13 -35 -20 -15 -30 -17 -31 -80 -30 -44 0 -69 -4 -81 -15 -15 -13 -19 -13
-40 1 -12 9 -31 16 -41 16 -11 0 -28 11 -39 25 -25 32 -58 25 -111 -21 -20
-19 -42 -34 -47 -34 -6 0 -9 -4 -7 -8 3 -11 -60 -82 -67 -75 -3 3 -8 -6 -12
-20 -3 -15 -13 -29 -22 -32 -10 -3 -41 -42 -69 -87 -29 -44 -53 -77 -53 -72 0
12 -91 5 -107 -8 -13 -11 -58 14 -46 25 3 4 -5 7 -20 7 -14 0 -29 -4 -32 -10
-9 -15 -35 -12 -35 4 0 16 -31 23 -104 26 -28 0 -53 3 -57 5 -4 3 -12 -2 -19
-10 -21 -26 -86 -19 -128 14 -20 16 -48 31 -62 35 -43 10 -56 22 -41 39 10 13
8 17 -9 22 -22 7 -60 40 -60 51 0 4 -11 17 -25 30 -13 12 -27 35 -29 51 -3 15
-10 29 -16 31 -5 2 -10 11 -10 21 0 9 -5 22 -12 29 -6 6 -14 30 -17 53 -6 45
-19 57 -39 37z"/>
<path d="M5145 2030 c3 -5 11 -10 16 -10 6 0 7 5 4 10 -3 6 -11 10 -16 10 -6
0 -7 -4 -4 -10z"/>
<path d="M0 1817 c0 -13 6 -29 13 -36 10 -11 10 -14 0 -18 -10 -4 -13 -135
-13 -609 l0 -604 40 0 c33 0 40 -4 41 -20 1 -11 2 -26 3 -32 2 -16 -20 -26
-56 -27 l-28 -1 0 -235 0 -235 471 0 471 0 -6 22 c-3 13 -6 28 -6 35 0 6 -6
18 -13 25 -7 7 -28 49 -47 93 -18 44 -39 87 -46 95 -6 8 -17 31 -23 50 -6 19
-20 63 -31 97 -11 34 -17 68 -15 75 3 8 -5 23 -19 35 -13 12 -27 35 -31 51 -3
17 -12 33 -20 35 -7 3 -16 19 -20 35 -3 17 -14 37 -25 47 -10 9 -21 33 -25 53
-4 20 -10 39 -13 42 -15 11 -42 69 -42 89 0 20 -21 27 -70 22 -13 -2 -13 -1 0
9 11 9 12 13 3 17 -7 2 -13 11 -13 19 0 8 -4 14 -10 14 -5 0 -15 18 -21 39 -8
28 -18 41 -33 43 -11 2 -26 14 -33 28 -7 14 -17 24 -23 22 -5 -1 -10 4 -10 12
0 8 -3 21 -6 30 -4 11 -1 16 10 16 20 0 20 14 0 45 -12 18 -13 28 -5 44 6 11
11 51 11 89 0 49 4 73 15 82 12 10 12 15 -2 36 -11 18 -25 24 -52 25 -20 1
-28 3 -18 6 28 7 20 28 -15 38 -18 6 -34 17 -34 25 -1 8 -2 21 -3 28 0 6 -8
12 -16 12 -8 0 -19 9 -25 19 -19 36 -42 54 -51 40 -6 -10 -9 -9 -15 4 -3 9 -1
24 6 32 10 12 9 15 -9 15 -11 0 -21 5 -21 10 0 6 -8 10 -18 10 -11 0 -31 23
-56 65 -21 36 -40 65 -42 65 -2 0 -4 -10 -4 -23z m360 -937 c0 -15 -4 -18 -21
-12 -11 5 -20 11 -20 15 1 4 1 14 1 22 0 13 4 14 20 5 11 -6 20 -19 20 -30z
m71 -153 c16 -32 33 -51 43 -51 12 1 15 -8 12 -47 -3 -40 1 -53 20 -74 13 -14
24 -27 24 -29 0 -2 -19 -3 -43 -3 -68 -2 -81 16 -95 129 -7 53 -15 103 -18
112 -4 11 -1 16 12 15 12 0 28 -18 45 -52z m-221 -129 c0 -5 -7 -8 -15 -8 -15
0 -20 21 -8 33 7 7 23 -11 23 -25z m108 -80 c-10 -6 -10 -8 0 -8 6 0 12 -4 12
-10 0 -15 -58 -12 -63 3 -7 22 5 48 27 57 16 6 23 3 29 -13 5 -13 3 -23 -5
-29z m150 -15 c-10 -2 -26 -2 -35 0 -10 3 -2 5 17 5 19 0 27 -2 18 -5z m78
-10 c15 -21 19 -63 5 -63 -9 0 -51 61 -51 74 0 13 33 5 46 -11z m-289 -19 c-3
-3 -12 -4 -19 -1 -8 3 -5 6 6 6 11 1 17 -2 13 -5z m66 -10 c3 -3 3 -13 0 -21
-5 -12 -7 -12 -14 -1 -15 23 -4 40 14 22z m85 -31 c-10 -2 -28 -2 -40 0 -13 2
-5 4 17 4 22 1 32 -1 23 -4z m199 -64 c-3 -12 2 -23 14 -29 19 -11 27 -50 9
-50 -13 0 -52 88 -45 100 10 17 27 -1 22 -21z m-47 -38 c0 -19 -8 -34 -25 -45
-46 -30 -78 -18 -87 36 -6 30 4 34 75 37 34 1 37 -1 37 -28z m10 -76 c9 -10 9
-15 1 -15 -6 0 -11 4 -11 9 0 5 -8 12 -17 14 -15 4 -15 5 -2 6 9 0 22 -6 29
-14z"/>
<path d="M498 343 c12 -2 30 -2 40 0 9 3 -1 5 -23 4 -22 0 -30 -2 -17 -4z"/>
<path d="M5121 1200 c0 -29 1 -32 10 -17 7 11 7 23 0 35 -9 14 -10 11 -10 -18z"/>
<path d="M5475 1180 c-3 -5 1 -10 9 -10 9 0 16 5 16 10 0 6 -4 10 -9 10 -6 0
-13 -4 -16 -10z"/>
<path d="M5110 1135 c0 -8 5 -15 10 -15 6 0 10 7 10 15 0 8 -4 15 -10 15 -5 0
-10 -7 -10 -15z"/>
<path d="M3327 1046 c-47 -36 -184 -43 -272 -15 -50 17 -240 18 -280 2 -16 -6
-69 -24 -118 -38 -48 -15 -90 -31 -93 -36 -9 -15 -50 -10 -102 10 -27 11 -58
17 -69 15 -22 -6 -133 30 -143 46 -8 14 -255 5 -295 -10 -16 -6 -32 -11 -35
-10 -3 1 -27 -2 -55 -5 -108 -14 -171 -28 -182 -43 -11 -13 -17 -13 -39 -3
-45 20 -163 24 -191 5 -23 -14 -26 -14 -44 2 -13 12 -22 14 -31 6 -7 -6 -36
-10 -63 -9 -45 2 -54 -2 -83 -30 -17 -18 -40 -33 -51 -33 -15 0 -23 -11 -32
-42 -6 -24 -14 -37 -16 -30 -8 21 -31 -19 -39 -67 -6 -36 -3 -44 20 -66 15
-14 34 -29 44 -34 27 -14 99 -23 106 -13 13 21 96 -9 96 -35 0 -6 9 -15 20
-18 14 -4 20 -15 20 -36 0 -22 5 -29 20 -29 16 0 20 -7 20 -30 0 -16 5 -30 11
-30 6 0 9 -6 6 -14 -8 -20 12 -33 51 -33 20 0 37 -7 46 -18 8 -12 20 -16 34
-13 28 8 62 -18 62 -48 0 -15 6 -24 15 -24 8 0 15 -9 15 -21 0 -13 4 -18 13
-13 7 5 6 0 -3 -11 -8 -10 -10 -16 -3 -12 6 4 14 3 18 -3 3 -5 1 -10 -4 -10
-6 0 -11 -4 -11 -9 0 -4 21 -11 47 -14 33 -3 52 -11 62 -26 7 -12 20 -21 27
-21 8 0 14 -7 14 -15 0 -8 9 -15 19 -15 11 0 23 -5 26 -10 3 -6 21 -10 38 -10
18 0 50 -9 72 -20 22 -11 52 -20 68 -20 16 0 43 -10 60 -22 18 -13 40 -24 50
-24 10 -1 28 -6 40 -12 47 -22 194 -34 372 -29 203 6 271 13 300 33 11 8 33
14 50 14 16 0 48 12 70 25 22 14 48 25 57 25 10 0 22 9 28 19 5 11 19 23 31
26 22 7 64 45 52 46 -5 0 3 4 15 10 13 5 26 18 29 28 3 11 15 21 27 23 13 2
21 10 21 23 0 15 17 28 63 50 50 24 64 36 69 58 4 20 11 27 29 27 12 0 26 5
29 10 3 6 16 10 29 10 12 0 28 6 35 13 11 10 13 10 7 0 -4 -8 -1 -13 8 -13 21
0 30 18 17 34 -9 10 -5 17 14 30 14 9 25 23 25 32 0 8 4 13 10 9 5 -3 16 7 24
22 8 15 28 41 45 56 17 16 29 33 25 38 -3 5 3 9 13 9 10 0 24 9 31 20 7 12 23
20 38 20 16 0 39 14 63 38 59 57 88 70 155 64 49 -4 60 -2 81 18 52 49 22 132
-70 194 -56 38 -64 41 -125 40 -39 -1 -79 -8 -97 -18 -25 -12 -55 -15 -148
-12 -64 1 -118 -1 -121 -5 -8 -13 -64 -1 -91 21 -29 23 -70 26 -96 6z m-107
-415 c0 -12 -28 -22 -34 -12 -3 5 -3 11 1 15 9 9 33 7 33 -3z m96 -36 c9 -24
19 -33 29 -29 9 4 15 0 15 -10 0 -18 -11 -21 -25 -7 -6 5 -21 11 -34 13 -17 2
-27 12 -32 30 -13 51 25 54 47 3z m-68 -64 c3 -16 -1 -22 -10 -19 -7 3 -15 15
-16 27 -3 16 1 22 10 19 7 -3 15 -15 16 -27z m-211 -9 c-13 -16 6 -32 40 -32
15 0 23 7 25 23 3 24 32 26 57 2 11 -11 10 -15 -8 -24 -12 -7 -26 -9 -31 -6
-6 4 -10 -10 -10 -34 0 -35 -4 -42 -24 -47 -13 -3 -27 -15 -30 -27 -3 -12 -8
-18 -12 -14 -4 3 -15 -5 -26 -18 -15 -19 -25 -23 -48 -19 -20 5 -36 0 -55 -14
-14 -11 -34 -18 -44 -15 -10 3 -29 -1 -42 -7 -40 -22 -142 -39 -169 -28 -30
11 -110 1 -164 -20 -36 -14 -39 -14 -55 5 -10 12 -30 20 -54 22 -20 1 -50 7
-65 13 -15 6 -47 14 -72 19 -105 18 -116 22 -147 54 -17 18 -42 35 -55 37 -18
2 -24 10 -26 38 -2 19 -7 39 -11 43 -12 12 11 57 28 57 10 0 11 -3 2 -14 -15
-18 4 -26 53 -21 35 3 89 -16 101 -35 3 -4 14 -6 24 -3 11 3 35 0 54 -6 26 -9
42 -8 76 4 50 17 111 13 127 -10 15 -20 30 -19 46 3 10 15 24 18 70 16 32 -1
75 -5 97 -9 45 -8 148 11 167 30 13 13 60 9 70 -6 3 -5 14 -9 24 -9 13 0 18 5
14 15 -8 21 27 50 59 50 20 0 23 -3 14 -13z m-1544 -29 c-7 -2 -19 -2 -25 0
-7 3 -2 5 12 5 14 0 19 -2 13 -5z m1716 -39 c-16 -19 -89 -19 -89 0 0 10 14
16 43 18 52 4 61 0 46 -18z"/>
<path d="M4729 874 c-12 -14 -11 -16 5 -13 11 2 21 10 24 17 5 17 -13 15 -29
-4z"/>
<path d="M4670 721 c-15 -46 -4 -76 21 -58 11 9 14 24 11 55 -5 52 -15 53 -32
3z"/>
<path d="M4632 580 c0 -14 2 -19 5 -12 2 6 2 18 0 25 -3 6 -5 1 -5 -13z"/>
<path d="M3453 343 c9 -2 23 -2 30 0 6 3 -1 5 -18 5 -16 0 -22 -2 -12 -5z"/>
</g>
</svg>
